<mxfile host="app.diagrams.net" modified="2023-12-15T21:45:55.257Z" agent="Mozilla/5.0 (Windows NT 10.0; Win64; x64) AppleWebKit/537.36 (KHTML, like Gecko) Chrome/120.0.0.0 Safari/537.36" version="22.1.9" etag="ybaC17aQWLmvZvhlHzOk" type="github">
  <diagram name="Halaman-1" id="otnC0uILIXWQL7dwGmyW">
    <mxGraphModel>
      <root>
        <mxCell id="0" />
        <mxCell id="1" parent="0" />
      </root>
    </mxGraphModel>
  </diagram>
</mxfile>
